HIERARCHY
ROOT Hips
{
 OFFSET 0.000000 0.000000 0.000000
 CHANNELS 6 Xposition Yposition Zposition Yrotation Xrotation Zrotation
 JOINT Chest
 {
  OFFSET 0.000000 10.354800 0.006500
  CHANNELS 3 Yrotation Xrotation Zrotation
  JOINT Chest2
  {
   OFFSET 0.000000 10.435800 -0.013200
   CHANNELS 3 Yrotation Xrotation Zrotation
   JOINT Chest3
   {
    OFFSET 0.000000 10.393700 0.000000
    CHANNELS 3 Yrotation Xrotation Zrotation
    JOINT Chest4
    {
     OFFSET 0.000000 10.383100 0.000000
     CHANNELS 3 Yrotation Xrotation Zrotation
     JOINT Neck
     {
      OFFSET 0.000000 15.694000 0.000000
      CHANNELS 3 Yrotation Xrotation Zrotation
      JOINT Head
      {
       OFFSET 0.000000 9.711000 -0.028000
       CHANNELS 3 Yrotation Xrotation Zrotation
       End Site
       {
        OFFSET 0.000000 18.578700 -0.014800
       }
      }
     }
     JOINT RightCollar
     {
      OFFSET -3.157200 10.367500 0.000000
      CHANNELS 3 Yrotation Xrotation Zrotation
      JOINT RightShoulder
      {
       OFFSET -14.482500 0.000000 0.000000
       CHANNELS 3 Yrotation Xrotation Zrotation
       JOINT RightElbow
       {
        OFFSET 0.000000 -31.707800 0.000000
        CHANNELS 3 Yrotation Xrotation Zrotation
        JOINT RightWrist
        {
         OFFSET 0.000000 -25.659300 0.000000
         CHANNELS 3 Yrotation Xrotation Zrotation
         End Site
         {
          OFFSET 0.000000 -18.994300 0.000000
         }
        }
       }
      }
     }
     JOINT LeftCollar
     {
      OFFSET 3.157200 10.367500 0.000000
      CHANNELS 3 Yrotation Xrotation Zrotation
      JOINT LeftShoulder
      {
       OFFSET 14.482500 0.000000 0.000000
       CHANNELS 3 Yrotation Xrotation Zrotation
       JOINT LeftElbow
       {
        OFFSET 0.000000 -31.707800 0.000000
        CHANNELS 3 Yrotation Xrotation Zrotation
        JOINT LeftWrist
        {
         OFFSET 0.000000 -25.659300 0.000000
         CHANNELS 3 Yrotation Xrotation Zrotation
         End Site
         {
          OFFSET 0.000000 -18.994300 0.000000
         }
        }
       }
      }
     }
    }
   }
  }
 }
 JOINT RightHip
 {
  OFFSET -8.365600 -0.032100 -0.003200
  CHANNELS 3 Yrotation Xrotation Zrotation
  JOINT RightKnee
  {
   OFFSET 0.000000 -43.980000 0.003100
   CHANNELS 3 Yrotation Xrotation Zrotation
   JOINT RightAnkle
   {
    OFFSET 0.000000 -42.882800 0.005200
    CHANNELS 3 Yrotation Xrotation Zrotation
    JOINT RightToe
    {
     OFFSET 0.000000 -4.915500 10.826300
     CHANNELS 3 Yrotation Xrotation Zrotation
     End Site
     {
      OFFSET 0.000000 -1.517500 6.175900
     }
    }
   }
  }
 }
 JOINT LeftHip
 {
  OFFSET 8.365600 -0.032100 -0.003200
  CHANNELS 3 Yrotation Xrotation Zrotation
  JOINT LeftKnee
  {
   OFFSET 0.000000 -43.980000 0.003100
   CHANNELS 3 Yrotation Xrotation Zrotation
   JOINT LeftAnkle
   {
    OFFSET 0.000000 -42.882800 0.005200
    CHANNELS 3 Yrotation Xrotation Zrotation
    JOINT LeftToe
    {
     OFFSET 0.000000 -4.915500 10.826300
     CHANNELS 3 Yrotation Xrotation Zrotation
     End Site
     {
      OFFSET 0.000000 -1.517500 6.175900
     }
    }
   }
  }
 }
}
MOTION
Frames: 16
Frame Time: 0.008333
0.000000 91.618600 0.000000 0.000000 -5.767877 0.000000 0.000000 11.653817 0.000000 0.000000 -5.885947 0.000000 0.000000 -0.000000 0.000000 0.000000 -0.000000 0.000000 0.000000 12.528835 0.000000 0.000000 0.711642 0.000000 0.000000 -0.000000 0.000000 0.000000 0.000000 -90.000000 0.000000 -2.309062 0.000000 0.000000 2.309062 0.000000 0.000000 -0.000000 0.000000 0.000000 -0.000000 90.000000 0.000000 -2.309062 0.000000 0.000000 2.309062 0.000000 0.000000 8.520406 0.000000 0.000000 1.905762 0.000000 -0.000000 -4.658285 0.000000 0.000000 -0.000000 0.000000 0.000000 8.520406 0.000000 0.000000 1.905762 0.000000 -0.000000 -4.658285 0.000000 0.000000 -0.000000 0.000000
5.964684 126.501711 45.997880 170.247615 -20.067427 -3.134871 -0.614492 13.521023 4.538734 -0.096037 1.171416 0.397417 -0.159471 1.977585 0.674331 -0.606013 12.151499 4.071338 -0.193493 20.000315 -3.486791 0.594880 -4.488030 -3.648774 1.821425 6.417207 -6.557018 2.787815 -5.216972 -3.524692 -88.025779 -61.191040 117.684488 -20.828269 -14.160348 -36.250097 -2.756572 7.337972 0.181300 3.363629 -3.732525 -3.090815 121.259292 -78.505426 -151.121091 18.682095 -2.769906 37.285732 10.145887 -62.747798 -3.933305 -85.096208 79.258687 -78.091985 4.697839 8.886313 -16.333595 -0.007627 -0.002819 -0.003463 -17.275309 -62.402373 3.924339 112.882536 84.903635 106.696854 -5.150646 -24.175778 -0.459315 0.004393 -0.001213 0.001995
5.961779 126.500904 45.996530 170.265553 -20.061011 -3.139993 -0.616647 13.527062 4.529802 -0.103107 1.165307 0.403484 -0.161979 1.974190 0.677694 -0.610103 12.160749 4.059980 -0.190797 19.994534 -3.483975 0.592805 -4.482535 -3.668867 1.830500 6.427566 -6.591451 2.767189 -5.232640 -3.478346 -88.023220 -61.196549 117.670867 -20.828788 -14.160128 -36.271826 -2.757827 7.325237 0.189715 3.328374 -3.752589 -3.073620 121.322468 -78.493382 -151.159886 18.692781 -2.877732 37.405190 10.211953 -62.753400 -3.963812 -85.171115 79.228454 -78.189369 4.691160 8.873732 -16.299037 -0.010459 -0.000250 -0.004749 -17.297194 -62.414014 3.916335 112.834818 84.894747 106.656437 -5.154766 -24.159368 -0.464600 0.004672 -0.002129 0.002121
5.958208 126.499837 45.995442 170.281292 -20.051911 -3.143310 -0.615158 13.528735 4.520138 -0.114062 1.160610 0.408618 -0.159303 1.980773 0.670852 -0.610408 12.160142 4.060168 -0.194092 19.989224 -3.480830 0.585926 -4.442563 -3.716278 1.836092 6.427020 -6.598988 2.751800 -5.236302 -3.458781 -88.009575 -61.203091 117.651893 -20.829837 -14.164489 -36.291130 -2.762227 7.312720 0.199469 3.290619 -3.778307 -3.056152 121.277748 -78.492127 -151.076732 18.712348 -2.987685 37.487398 10.234068 -62.761177 -3.980647 -85.212003 79.222692 -78.248929 4.690680 8.862638 -16.289581 -0.012514 0.000063 -0.005682 -17.315576 -62.431844 3.896792 112.734409 84.863158 106.562945 -5.149559 -24.140167 -0.471592 0.000637 -0.004580 0.000289
5.956501 126.498667 45.995213 170.304749 -20.039725 -3.161870 -0.613367 13.526393 4.525137 -0.119042 1.161695 0.408491 -0.160309 1.981123 0.670897 -0.610702 12.160443 4.059374 -0.204344 19.995390 -3.486734 0.584929 -4.424326 -3.719523 1.836451 6.425206 -6.604916 2.746134 -5.236133 -3.446896 -88.000168 -61.204123 117.634604 -20.832740 -14.172980 -36.303197 -2.773442 7.297865 0.201337 3.251493 -3.830127 -3.011595 121.141390 -78.468209 -150.914751 18.745530 -3.067344 37.577698 10.224842 -62.772953 -3.973370 -85.242942 79.212326 -78.279232 4.680083 8.859111 -16.291387 -0.006939 -0.004223 -0.003151 -17.364307 -62.443754 3.920641 112.754361 84.871292 106.585496 -5.128650 -24.117038 -0.474305 0.003073 -0.000439 0.001395
5.952393 126.497566 45.994057 170.336953 -20.030624 -3.170465 -0.625920 13.525003 4.518998 -0.089847 1.174593 0.395331 -0.161834 1.981835 0.671083 -0.631778 12.150811 4.072055 -0.216891 20.006550 -3.491738 0.581654 -4.415525 -3.713737 1.832900 6.423262 -6.608125 2.742853 -5.238113 -3.440697 -87.987754 -61.202875 117.615484 -20.836326 -14.187523 -36.305822 -2.787908 7.286565 0.197218 3.229831 -3.872336 -2.966492 121.016780 -78.434511 -150.784338 18.775581 -3.134038 37.650797 10.264589 -62.779653 -4.004407 -85.314812 79.199399 -78.363343 4.644452 8.845444 -16.258754 -0.007675 -0.003528 -0.003484 -17.404282 -62.458046 3.920743 112.728461 84.880088 106.560949 -5.132940 -24.078909 -0.478647 0.001236 0.003155 0.000561
5.947942 126.496680 45.992344 170.374108 -20.025202 -3.179042 -0.655431 13.523488 4.513683 -0.066819 1.182000 0.388970 -0.162152 1.982122 0.671498 -0.639711 12.149287 4.075506 -0.227902 20.025484 -3.497844 0.576030 -4.432850 -3.699843 1.832200 6.425218 -6.611913 2.737274 -5.243604 -3.442109 -87.967369 -61.198098 117.591265 -20.839860 -14.205465 -36.311297 -2.798799 7.276927 0.194433 3.216835 -3.897823 -2.936921 120.947362 -78.402566 -150.725828 18.799223 -3.191156 37.712815 10.294356 -62.780383 -4.030052 -85.384513 79.201001 -78.469335 4.643280 8.819487 -16.215286 -0.015783 0.000341 -0.007166 -17.456754 -62.469257 3.927782 112.765460 84.871541 106.588197 -5.119402 -24.067870 -0.482847 0.002174 0.001957 0.000987
5.947050 126.495801 45.992075 170.415673 -20.016179 -3.210445 -0.654503 13.524573 4.531247 -0.073276 1.179609 0.389102 -0.175255 1.978761 0.676333 -0.645883 12.147336 4.078546 -0.223034 20.055775 -3.509387 0.563765 -4.410389 -3.697852 1.842634 6.433943 -6.620537 2.736332 -5.252733 -3.452745 -87.944150 -61.187061 117.565002 -20.844761 -14.190521 -36.330332 -2.785335 7.277063 0.186005 3.194445 -3.910334 -2.917884 121.035142 -78.354524 -150.841145 18.813242 -3.202943 37.778436 10.307358 -62.780021 -4.023365 -85.425110 79.169203 -78.502822 4.652818 8.801249 -16.220412 -0.000483 -0.002499 -0.000219 -17.549465 -62.476340 3.981865 112.870052 84.890783 106.686221 -5.084279 -24.058859 -0.490366 0.003336 0.004656 0.001515
5.944166 126.494933 45.991264 170.440090 -20.009921 -3.225055 -0.650528 13.525725 4.534504 -0.077100 1.176369 0.392072 -0.183206 1.977992 0.678735 -0.632475 12.151121 4.077852 -0.220999 20.106225 -3.526222 0.540582 -4.411931 -3.680781 1.828622 6.430001 -6.615698 2.777224 -5.253767 -3.505453 -87.961889 -61.146283 117.555517 -20.848800 -14.204664 -36.339082 -2.762592 7.283748 0.180778 3.148168 -3.955942 -2.878963 120.991573 -78.334776 -150.793655 18.827833 -3.193156 37.795648 10.299131 -62.780054 -4.013545 -85.455669 79.157126 -78.543433 4.633532 8.778003 -16.244922 -0.002211 -0.002727 -0.001004 -17.596727 -62.481909 4.006333 112.971872 84.901172 106.791821 -5.100008 -24.063371 -0.496646 0.003550 0.005752 0.001612
5.941616 126.493946 45.991087 170.499771 -19.999099 -3.254414 -0.641944 13.526850 4.541587 -0.129983 1.164282 0.407012 -0.161583 1.982551 0.672884 -0.613408 12.155319 4.080951 -0.247161 20.119680 -3.524072 0.525915 -4.387149 -3.679814 1.793900 6.422122 -6.605864 2.794363 -5.254546 -3.529366 -87.978300 -61.126651 117.559388 -20.853556 -14.202488 -36.344400 -2.776639 7.279496 0.185266 3.139663 -4.023687 -2.835626 120.813563 -78.326197 -150.615384 18.853464 -3.212569 37.818521 10.238345 -62.785220 -3.995887 -85.508351 79.150226 -78.607000 4.614907 8.761309 -16.245743 -0.006258 -0.004926 -0.002841 -17.683184 -62.488285 4.038867 112.985163 84.902082 106.803089 -5.104540 -24.085430 -0.508589 0.002872 0.005862 0.001304
5.938567 126.493126 45.990367 170.536006 -19.992503 -3.272540 -0.657559 13.525145 4.547503 -0.115937 1.168126 0.403214 -0.161165 1.982786 0.673976 -0.626382 12.151085 4.088184 -0.247791 20.140038 -3.533135 0.511190 -4.369665 -3.681295 1.794477 6.426430 -6.609232 2.799639 -5.256233 -3.546914 -87.995845 -61.112097 117.567681 -20.854348 -14.145274 -36.311779 -2.761398 7.283438 0.178775 3.122628 -4.059869 -2.808410 120.746996 -78.323285 -150.549477 18.820362 -3.248761 37.824269 10.203257 -62.787172 -3.985451 -85.564589 79.140099 -78.668566 4.602715 8.743791 -16.253280 -0.007108 -0.006288 -0.003227 -17.764203 -62.494866 4.091235 113.091979 84.905866 106.896033 -5.132967 -24.096920 -0.511348 0.003544 0.003338 0.001609
5.936375 126.492475 45.989562 170.575824 -19.987340 -3.296118 -0.674088 13.525393 4.558165 -0.098140 1.172920 0.399655 -0.135855 1.988073 0.670764 -0.649974 12.146550 4.097457 -0.269029 20.139379 -3.527043 0.503730 -4.298649 -3.706333 1.779912 6.426321 -6.604864 2.791346 -5.263968 -3.551018 -87.967122 -61.143372 117.582810 -20.867266 -14.158800 -36.309956 -2.763109 7.279442 0.182158 3.100367 -4.081625 -2.790498 120.765679 -78.320218 -150.561267 18.788741 -3.264745 37.824589 10.145215 -62.777118 -3.946899 -85.558211 79.115636 -78.667122 4.591797 8.722533 -16.269848 0.000280 -0.003379 0.000127 -17.825436 -62.496093 4.120629 113.097541 84.906373 106.900532 -5.156913 -24.104787 -0.515192 0.001309 0.003977 0.000594
5.933420 126.491508 45.989531 170.616914 -19.976942 -3.315919 -0.676224 13.521735 4.566913 -0.098164 1.172464 0.400035 -0.161165 1.982749 0.675384 -0.625523 12.149114 4.096605 -0.289987 20.144363 -3.522619 0.498125 -4.267982 -3.713674 1.786612 6.439309 -6.604676 2.781937 -5.271234 -3.566552 -87.988870 -61.141162 117.607714 -20.866683 -14.146228 -36.294213 -2.779058 7.277534 0.187857 3.093103 -4.096982 -2.780110 120.891344 -78.318539 -150.661313 18.801413 -3.249099 37.809702 10.087609 -62.779922 -3.927501 -85.582098 79.105904 -78.695656 4.596458 8.709544 -16.287619 0.003289 -0.004395 0.001493 -17.892303 -62.509196 4.149120 113.068585 84.899559 106.871127 -5.173753 -24.096248 -0.526584 0.001676 0.000846 0.000761
5.930607 126.490663 45.989374 170.655357 -19.967797 -3.334522 -0.630622 13.528567 4.577930 -0.098030 1.172602 0.400545 -0.199644 1.970796 0.683392 -0.587917 12.161173 4.091828 -0.334034 20.142344 -3.505437 0.481638 -4.269812 -3.702710 1.732965 6.417344 -6.580823 2.803897 -5.269035 -3.587191 -88.006696 -61.140684 117.626023 -20.866303 -14.135097 -36.284571 -2.830838 7.256960 0.213376 3.103473 -4.117703 -2.769928 120.955919 -78.319698 -150.716636 18.782196 -3.264653 37.811832 10.036219 -62.784411 -3.914083 -85.592555 79.103036 -78.709064 4.599415 8.705755 -16.296449 0.006277 -0.007712 0.002849 -17.953441 -62.522121 4.175805 113.036277 84.892740 106.836982 -5.198383 -24.074350 -0.535033 0.001039 -0.002672 0.000472
5.928393 126.490107 45.988813 170.690833 -19.962161 -3.353998 -0.619357 13.532661 4.588978 -0.097688 1.172999 0.400856 -0.160483 1.983435 0.676615 -0.630645 12.147613 4.104185 -0.347595 20.158851 -3.507830 0.465938 -4.276931 -3.690536 1.732321 6.413113 -6.580046 2.806651 -5.269985 -3.592299 -88.028232 -61.140391 117.642916 -20.867039 -14.116620 -36.274004 -2.802475 7.259252 0.208294 3.110814 -4.150601 -2.745385 120.984030 -78.328045 -150.776540 18.775355 -3.289441 37.827455 9.980600 -62.785933 -3.895861 -85.621966 79.078535 -78.738436 4.625429 8.703428 -16.307378 0.009721 -0.011177 0.004413 -18.012610 -62.530140 4.202606 113.018637 84.888783 106.817170 -5.224552 -24.047089 -0.540171 -0.000938 -0.006971 -0.000426
5.926019 126.489473 45.988648 170.721408 -19.954819 -3.370294 -0.607919 13.533965 4.596854 -0.096969 1.173242 0.401168 -0.159129 1.983827 0.677248 -0.655236 12.140453 4.111576 -0.336061 20.185848 -3.518191 0.445115 -4.262755 -3.683174 1.751845 6.418394 -6.588124 2.801862 -5.272441 -3.590903 -88.055614 -61.134307 117.652996 -20.867709 -14.103690 -36.266188 -2.784216 7.261027 0.200018 3.100417 -4.158851 -2.730010 121.234033 -78.318558 -150.958642 18.803388 -3.275165 37.807920 9.925185 -62.787963 -3.883803 -85.636997 79.055550 -78.752158 4.637261 8.704175 -16.315496 0.007574 -0.011215 0.003438 -18.055708 -62.537469 4.214460 112.812747 84.874744 106.611929 -5.249000 -24.017714 -0.541945 -0.002092 -0.013396 -0.000950
